<svg xmlns="http://www.w3.org/2000/svg"  viewBox="0 0 48 48" width="48px" height="48px"><path d="M 17 3 C 12.599415 3 9 6.599415 9 11 C 9 13.744345 10.486365 16.057521 12.607422 17.5 C 10.486365 18.942479 9 21.255655 9 24 C 9 26.748414 10.404909 29.183324 12.53125 30.625 C 10.398696 32.172932 9 34.677359 9 37.5 C 9 42.176657 12.823343 46 17.5 46 C 22.176657 46 26 42.176657 26 37.5 L 26 30.5 L 26 19 L 32 19 C 36.400585 19 40 15.400585 40 11 C 40 6.599415 36.400585 3 32 3 L 24.5 3 L 17 3 z M 17 6 L 23 6 L 23 16 L 17 16 C 14.220585 16 12 13.779415 12 11 C 12 8.220585 14.220585 6 17 6 z M 26 6 L 32 6 C 34.779415 6 37 8.220585 37 11 C 37 13.779415 34.779415 16 32 16 L 26 16 L 26 6 z M 17 19 L 23 19 L 23 29 L 17.5 29 L 17 29 C 14.220585 29 12 26.779415 12 24 C 12 21.220585 14.220585 19 17 19 z M 32.5 19 A 6.5 6.5 0 0 0 32.5 32 A 6.5 6.5 0 0 0 32.5 19 z M 17.5 32 L 23 32 L 23 37.5 C 23 40.555343 20.555343 43 17.5 43 C 14.444657 43 12 40.555343 12 37.5 C 12 34.444657 14.444657 32 17.5 32 z"/></svg>