<?xml version="1.0" standalone="no"?><svg xmlns="http://www.w3.org/2000/svg" viewBox="0 0 1440 320"><path fill="#0099ff" fill-opacity="1" d="M0,288L21.8,266.7C43.6,245,87,203,131,170.7C174.5,139,218,117,262,96C305.5,75,349,53,393,69.3C436.4,85,480,139,524,149.3C567.3,160,611,128,655,112C698.2,96,742,96,785,128C829.1,160,873,224,916,256C960,288,1004,288,1047,272C1090.9,256,1135,224,1178,197.3C1221.8,171,1265,149,1309,165.3C1352.7,181,1396,235,1418,261.3L1440,288L1440,320L1418.2,320C1396.4,320,1353,320,1309,320C1265.5,320,1222,320,1178,320C1134.5,320,1091,320,1047,320C1003.6,320,960,320,916,320C872.7,320,829,320,785,320C741.8,320,698,320,655,320C610.9,320,567,320,524,320C480,320,436,320,393,320C349.1,320,305,320,262,320C218.2,320,175,320,131,320C87.3,320,44,320,22,320L0,320Z"></path></svg>